<svg height="512" viewBox="0 0 512 512" width="512" xmlns="http://www.w3.org/2000/svg"><g id="Flat"><path d="m360 424h-208v-144a32 32 0 0 1 32-32h144a32 32 0 0 1 32 32z" fill="#395d7b"/><path d="m208 248h96v88h-96z" fill="#fdb683"/><path d="m360 488h-208v-208h56l.155.777a48.794 48.794 0 0 0 47.845 39.223 48.794 48.794 0 0 0 47.845-39.223l.155-.777h56z" fill="#fff"/><path d="m360 488h-208v-208h56l.155.777a48.794 48.794 0 0 0 47.845 39.223 48.794 48.794 0 0 0 47.845-39.223l.155-.777h56z" fill="#de5540"/><path d="m256 360a84.666 84.666 0 0 1 -35.313-7.658l6.626-14.563a68.793 68.793 0 0 0 28.687 6.221 69.608 69.608 0 0 0 30.69-7.172l7.09 14.344a85.712 85.712 0 0 1 -37.78 8.828z" fill="#d64a34"/><path d="m152 280h48v208h-48z" fill="#426887"/><path d="m152 344v-64a64 64 0 0 0 -51.2 25.6l-64.8 86.4a60 60 0 0 0 -12 36 60 60 0 0 0 60 60h44v-64h-40z" fill="#de5540"/><path d="m312 280h48v208h-48z" fill="#426887" transform="matrix(-1 0 0 -1 672 768)"/><path d="m192 488h-64v-64l2.94-8.821a22.2 22.2 0 0 1 21.06-15.179v24h40a16 16 0 0 1 16 16v32a16 16 0 0 1 -16 16z" fill="#fdc8a2"/><path d="m320 488h64v-64l-2.94-8.821a22.2 22.2 0 0 0 -21.06-15.179v24h-40a16 16 0 0 0 -16 16v32a16 16 0 0 0 16 16z" fill="#fdc8a2"/><path d="m360 344v-64a64 64 0 0 1 51.2 25.6l64.8 86.4a60 60 0 0 1 12 36 60 60 0 0 1 -60 60h-44v-64h40z" fill="#de5540"/><path d="m216 56h80a48 48 0 0 1 48 48v88a88 88 0 0 1 -88 88 88 88 0 0 1 -88-88v-88a48 48 0 0 1 48-48z" fill="#fdc8a2"/><path d="m168 152 6.782-2.713a94.1 94.1 0 0 0 49.218-45.287v-56h-8a48 48 0 0 0 -48 48z" fill="#784533"/><path d="m344 96v56a100.559 100.559 0 0 1 -56-56v-48h8a48 48 0 0 1 48 48z" fill="#784533"/><g fill="#844e3a"><circle cx="216" cy="168" r="16"/><circle cx="296" cy="168" r="16"/><path d="m288 48v48a190.267 190.267 0 0 1 -50.48 23.83 190.5 190.5 0 0 1 -55.21 8.17h-30.31v-24a80.452 80.452 0 0 1 .79-11.26 79.658 79.658 0 0 1 12.25-32.52 79.913 79.913 0 0 1 66.96-36.22h22.7a35.1 35.1 0 0 1 33.3 24z"/></g><path d="m160 152h8a0 0 0 0 1 0 0v48a0 0 0 0 1 0 0h-8a24 24 0 0 1 -24-24 24 24 0 0 1 24-24z" fill="#fdb683"/><path d="m368 152h8a0 0 0 0 1 0 0v48a0 0 0 0 1 0 0h-8a24 24 0 0 1 -24-24 24 24 0 0 1 24-24z" fill="#fdb683" transform="matrix(-1 0 0 -1 720 352)"/><path d="m344 106.48v27.28l-6.51-9.11-.15-.21c-14.87-22.31-37.56-37.64-37.78-37.79l8.88-13.31a174.786 174.786 0 0 1 35.56 33.14z" fill="#6a3f2e"/><path d="m266.4 72.79c-1.18.86-29.32 21.19-75.29 31.03-7.34 1.58-14.81 2.8-22.2 3.65-5.37.62-10.92 1.07-16.49 1.31l-.42.02v-4.8a80.452 80.452 0 0 1 .79-11.26c4.84-.23 9.63-.62 14.28-1.17 6.9-.78 13.85-1.93 20.68-3.39 42.67-9.14 68.93-28.11 69.19-28.3z" fill="#784533"/><path d="m238.88 56.32c-27.81 12.34-56.16 18.09-82.37 21.16a79.029 79.029 0 0 1 8.53-17.26c21.9-3.17 44.94-8.58 67.36-18.52a6.13 6.13 0 0 1 .75-.29l2.55 7.75z" fill="#784533"/><path d="m275.267 201.493a32.031 32.031 0 0 1 -38.534 0l-9.466 12.9a47.767 47.767 0 0 0 57.466 0z" fill="#fcb079"/></g></svg>