<svg height="512" viewBox="0 0 64 64" width="512" xmlns="http://www.w3.org/2000/svg"><g id="Icons"><g><g><path d="m29.75 51.667-5.75-7.667h4.125c.987-7.882 7.73-14 15.875-14 2.868 0 5.612.77 8 2.153v-14.153h-48v30c0 2.209 1.791 4 4 4h21.5z" fill="#f0f0f0"/></g><g><path d="m52 18h-48v-6c0-2.209 1.791-4 4-4h40c2.209 0 4 1.791 4 4z" fill="#fab400"/></g><g><path d="m12 8h-4c-2.209 0-4 1.791-4 4v6h4v-6c0-2.209 1.791-4 4-4z" fill="#dc9600"/></g><g><path d="m8 48v-30h-4v30c0 2.209 1.791 4 4 4h4c-2.209 0-4-1.791-4-4z" fill="#d2d2d2"/></g><g><path d="m18 12c-1.105 0-2-.895-2-2v-4c0-1.105.895-2 2-2 1.105 0 2 .895 2 2v4c0 1.105-.895 2-2 2z" fill="#fa6450"/></g><g><path d="m28 12c-1.105 0-2-.895-2-2v-4c0-1.105.895-2 2-2 1.105 0 2 .895 2 2v4c0 1.105-.895 2-2 2z" fill="#fa6450"/></g><g><path d="m38 12c-1.105 0-2-.895-2-2v-4c0-1.105.895-2 2-2 1.105 0 2 .895 2 2v4c0 1.105-.895 2-2 2z" fill="#fa6450"/></g><g><path d="m18 24h4v4h-4z" fill="#505050"/></g><g><path d="m26 24h4v4h-4z" fill="#505050"/></g><g><path d="m34 24h4v4h-4z" fill="#505050"/></g><g><path d="m42 24h4v4h-4z" fill="#fa6450"/></g><g><path d="m10 32h4v4h-4z" fill="#505050"/></g><g><path d="m18 32h4v4h-4z" fill="#505050"/></g><g><path d="m26 32h4v4h-4z" fill="#505050"/></g><g><path d="m10 40h4v4h-4z" fill="#505050"/></g><g><path d="m18 40h4v4h-4z" fill="#505050"/></g><g><path d="m44 32c-7.72 0-14 6.28-14 14h-2l3 4 3-4h-2c0-6.627 5.373-12 12-12 4.953 0 9.204 3.002 11.036 7.285l1.347-1.797c-2.348-4.446-7.014-7.488-12.383-7.488z" fill="#64c8f0"/></g><g><path d="m29.177 40h-3.177v4h2.125c.175-1.398.539-2.737 1.052-4z" fill="#505050"/></g><g><path d="m57 42-3 4h2c0 6.627-5.373 12-12 12-4.953 0-9.204-3.002-11.036-7.285l-1.347 1.797c2.348 4.446 7.014 7.488 12.383 7.488 7.72 0 14-6.28 14-14h2z" fill="#64c8f0"/></g><g><g><path d="m50 54h-12c-1.105 0-2-.895-2-2v-10c0-1.105.895-2 2-2h12c1.105 0 2 .895 2 2v10c0 1.105-.895 2-2 2z" fill="#fa6450"/></g><g><path d="m38 52v-10c0-1.105.895-2 2-2h-2c-1.105 0-2 .895-2 2v10c0 1.105.895 2 2 2h2c-1.105 0-2-.895-2-2z" fill="#dc4632"/></g><g><path d="m36 42v4c0 1.105.895 2 2 2h12c1.105 0 2-.895 2-2v-4c0-1.105-.895-2-2-2h-12c-1.105 0-2 .895-2 2z" fill="#be2814"/></g><g><path d="m49 50c-.552 0-1-.448-1-1v-2c0-.552.448-1 1-1 .552 0 1 .448 1 1v2c0 .552-.448 1-1 1z" fill="#fab400"/></g><g><path d="m39 50c-.552 0-1-.448-1-1v-2c0-.552.448-1 1-1 .552 0 1 .448 1 1v2c0 .552-.448 1-1 1z" fill="#fab400"/></g><g><path d="m40 38v2h2v-2h4v2h2v-2c0-1.105-.895-2-2-2h-4c-1.105 0-2 .895-2 2z" fill="#fab400"/></g></g></g></g></svg>