<svg id="Layer_1" enable-background="new 0 0 512.002 512.002" height="512" viewBox="0 0 512.002 512.002" width="512" xmlns="http://www.w3.org/2000/svg"><g><g clip-rule="evenodd" fill-rule="evenodd"><path d="m256.001 90.001c9.005 0 17.316-2.976 24.001-7.998 9.715-7.298 15.999-18.916 15.999-32.002 0-2.739-.276-5.415-.8-7.999-3.706-18.258-19.848-32.001-39.2-32.001s-35.494 13.742-39.2 32.001c-.524 2.585-.8 5.26-.8 7.999 0 13.086 6.284 24.704 15.999 32.002 6.686 5.022 14.996 7.998 24.001 7.998z" fill="#6d91ac"/><path d="m232 82.003c-9.715-7.298-15.999-18.916-15.999-32.002 0-2.739.276-5.415.801-7.999h-20.802c-11 0-20 9-20 20v20.002h56z" fill="#a7bdcd"/><path d="m296.001 50.001c0 13.086-6.284 24.704-16.001 32.002h56.001v-20.002c0-10.997-9-20-20-20h-20.801c.526 2.585.801 5.26.801 8z" fill="#a7bdcd"/><path d="m158.883 147.885c0-14.236-11.647-25.883-25.883-25.883s-25.883 11.647-25.883 25.883v12.942c0 6.616 2.516 12.674 6.639 17.262 4.747 5.284 11.625 8.62 19.244 8.62s14.496-3.336 19.244-8.62c4.123-4.588 6.639-10.646 6.639-17.262z" fill="#ffdcd5"/><path d="m152.244 178.089c-4.747 5.284-11.625 8.62-19.244 8.62s-14.497-3.336-19.243-8.621c-15.36 7.268-26.052 22.932-26.052 40.974v12.94h90.59v-12.94c.001-18.041-10.692-33.706-26.051-40.973z" fill="#ffc144"/><path d="m158.883 297.885c0-14.236-11.647-25.883-25.883-25.883s-25.883 11.647-25.883 25.883v12.941c0 6.616 2.516 12.674 6.639 17.262 4.747 5.284 11.625 8.62 19.244 8.62s14.496-3.336 19.244-8.62c4.123-4.588 6.639-10.646 6.639-17.262z" fill="#ffdcd5"/><path d="m152.244 328.088c-4.747 5.284-11.625 8.62-19.244 8.62s-14.497-3.336-19.243-8.621c-15.36 7.268-26.052 22.932-26.052 40.974v12.94h90.59v-12.94c.001-18.041-10.692-33.705-26.051-40.973z" fill="#00ccf2"/><path d="m404.884 147.885c0-14.236-11.647-25.883-25.883-25.883s-25.883 11.647-25.883 25.883v12.942c0 6.616 2.516 12.674 6.639 17.262 4.747 5.284 11.625 8.62 19.244 8.62s14.496-3.336 19.244-8.62c4.123-4.588 6.639-10.646 6.639-17.262z" fill="#ffdcd5"/><path d="m398.246 178.089c-4.747 5.284-11.625 8.62-19.244 8.62s-14.497-3.336-19.243-8.621c-15.359 7.268-26.052 22.932-26.052 40.974v12.94h90.59v-12.94c0-18.041-10.693-33.706-26.051-40.973z" fill="#88df8e"/><path d="m404.884 297.885c0-14.236-11.647-25.883-25.883-25.883s-25.883 11.647-25.883 25.883v12.941c0 6.616 2.516 12.674 6.639 17.262 4.747 5.284 11.625 8.62 19.244 8.62s14.496-3.336 19.244-8.62c4.123-4.588 6.639-10.646 6.639-17.262z" fill="#ffdcd5"/><path d="m398.246 328.088c-4.747 5.284-11.625 8.62-19.244 8.62s-14.497-3.336-19.243-8.621c-15.359 7.268-26.052 22.932-26.052 40.974v12.94h90.59v-12.94c0-18.041-10.693-33.705-26.051-40.973z" fill="#ff5d7d"/><path d="m256.001 382.002h-77.706-90.59-77.704v20.001c0 11 9 20 20 20h394.296v-40.001h-90.59z" fill="#8481e2"/><path d="m424.297 382.002v40.001h57.705c11 0 20-9 20-20v-20.001h-75.407z" fill="#b5b3ee"/><path d="m178.296 232.002h77.706v-142.001c-9.005 0-17.316-2.976-24-7.998h-56.001-146.001c-11 0-20 9-20 20l-.001 130h77.706v-12.94c0-18.042 10.692-33.706 26.05-40.973-4.122-4.588-6.638-10.646-6.638-17.262v-12.942c0-14.236 11.647-25.883 25.883-25.883s25.883 11.648 25.883 25.883v12.941c0 6.617-2.516 12.674-6.639 17.262 15.359 7.268 26.051 22.931 26.051 40.973v12.94z" fill="#ff9eb1"/><path d="m256.001 232.002h-77.706-90.59-77.704v149.999h77.705v-12.94c0-18.042 10.692-33.706 26.05-40.973-4.122-4.588-6.638-10.646-6.638-17.262v-12.942c0-14.236 11.647-25.883 25.883-25.883s25.883 11.647 25.883 25.883v12.941c0 6.617-2.516 12.674-6.639 17.262 15.359 7.267 26.051 22.931 26.051 40.973v12.94h77.706v-149.998z" fill="#b8ecbb"/><path d="m256.001 90.001v142.002h77.706v-12.94c0-18.042 10.692-33.706 26.05-40.973-4.122-4.588-6.638-10.646-6.638-17.262v-12.942c0-14.236 11.647-25.883 25.883-25.883s25.883 11.648 25.883 25.883v12.941c0 6.617-2.516 12.674-6.639 17.262 15.359 7.268 26.051 22.931 26.051 40.973v12.94h77.705v-130c0-11-9-20-20-20h-146-56c-6.685 5.023-14.995 7.999-24.001 7.999z" fill="#66e0f7"/><path d="m333.707 232.002h-77.706v149.999h77.706v-12.94c0-18.042 10.692-33.706 26.05-40.973-4.122-4.588-6.638-10.646-6.638-17.262v-12.942c0-14.236 11.647-25.883 25.883-25.883s25.883 11.647 25.883 25.883v12.941c0 6.617-2.516 12.674-6.639 17.262 15.359 7.267 26.051 22.931 26.051 40.973v12.94h77.705v-149.998h-77.705z" fill="#ffda8f"/><path d="m205.366 422.003h101.303l19.813 79.999h-140.961z" fill="#b5b3ee"/></g><g><path d="m482.002 72.003h-136v-10.002c0-16.542-13.458-30-30-30h-13.365c-7.242-18.7-25.41-32.001-46.636-32.001s-39.393 13.301-46.635 32.001h-13.366c-16.542 0-30 13.458-30 30v10.001h-136c-16.542 0-30 13.458-30 30v300c0 16.542 13.458 30 30 30h162.599l-14.883 60h-11.717c-5.522 0-10 4.477-10 10s4.478 10 10 10h180.004c5.522 0 10-4.477 10-10s-4.478-10-10-10h-11.686l-14.911-60h162.595c16.542 0 30-13.458 30-30v-300c.001-16.542-13.457-29.999-29.999-29.999zm-87.117 238.823c0 8.758-7.125 15.883-15.884 15.883-8.758 0-15.883-7.125-15.883-15.883v-12.941c0-8.758 7.125-15.883 15.883-15.883 8.759 0 15.884 7.125 15.884 15.883zm-36.268 29.508c5.794 4.015 12.817 6.375 20.384 6.375 7.575 0 14.604-2.365 20.402-6.388 9.295 6.586 14.893 17.169 14.893 28.74v2.94h-70.589v-2.94c0-11.383 5.717-22.141 14.91-28.727zm53.445-15.557c1.818-4.291 2.823-9.006 2.823-13.951v-12.941c0-19.786-16.098-35.883-35.884-35.883s-35.883 16.097-35.883 35.883v12.941c0 4.945 1.006 9.66 2.823 13.951-13.911 10.344-22.234 26.571-22.234 44.284v2.94h-57.706v-49.999c0-5.523-4.478-10-10-10s-10 4.477-10 10v49.999h-57.706v-2.94c0-17.706-8.324-33.938-22.235-44.284 1.818-4.291 2.823-9.006 2.823-13.951v-12.941c0-19.786-16.097-35.883-35.883-35.883s-35.883 16.097-35.883 35.883v12.941c0 4.945 1.006 9.66 2.823 13.951-13.912 10.344-22.235 26.571-22.235 44.284v2.94h-57.704-.001v-130h472.001.001v130h-.001-57.705v-2.94c0-17.706-8.323-33.938-22.234-44.284zm-263.179-13.951c0 8.758-7.125 15.883-15.883 15.883s-15.883-7.125-15.883-15.883v-12.941c0-8.758 7.125-15.883 15.883-15.883s15.883 7.125 15.883 15.883zm-36.268 29.507c5.794 4.015 12.817 6.376 20.385 6.376 7.575 0 14.604-2.365 20.401-6.387 9.296 6.586 14.894 17.169 14.894 28.74v2.94h-70.59v-2.94c0-11.384 5.717-22.143 14.91-28.729zm36.268-179.506c0 8.758-7.125 15.883-15.883 15.883s-15.883-7.125-15.883-15.883v-12.942c0-8.757 7.125-15.882 15.883-15.882s15.883 7.125 15.883 15.882zm-36.267 29.507c5.794 4.015 12.817 6.375 20.384 6.375 7.575 0 14.604-2.365 20.401-6.387 9.296 6.586 14.894 17.169 14.894 28.74v2.94h-70.59v-2.94c0-11.383 5.717-22.141 14.911-28.728zm282.269-29.507c0 8.758-7.125 15.883-15.884 15.883-8.758 0-15.883-7.125-15.883-15.883v-12.942c0-8.757 7.125-15.882 15.883-15.882 8.759 0 15.884 7.125 15.884 15.882zm-36.268 29.507c5.794 4.015 12.817 6.375 20.384 6.375 7.575 0 14.604-2.365 20.402-6.388 9.295 6.586 14.893 17.169 14.893 28.74v2.94h-70.589v-2.94c0-11.382 5.717-22.14 14.91-28.727zm133.385-88.332v120h-.001-57.705v-2.94c0-17.706-8.323-33.938-22.234-44.284 1.818-4.291 2.823-9.006 2.823-13.951v-12.942c0-19.786-16.098-35.882-35.884-35.882s-35.883 16.097-35.883 35.882v12.942c0 4.946 1.006 9.66 2.823 13.951-13.911 10.345-22.234 26.571-22.234 44.284v2.94h-57.706v-123.007c6.183-1.26 11.946-3.675 17.075-6.992h198.926c5.514 0 10 4.486 10 9.999zm-166-40.001v10.001h-25.115c2.992-6.079 4.781-12.849 5.064-20.001h10.051c5.514 0 10 4.486 10 10zm-70.001-42.001c16.543 0 30.001 13.458 30.001 30s-13.458 30-30.001 30c-16.542 0-30-13.458-30-30s13.458-30 30-30zm-70.001 52.002v-10.001c0-5.514 4.486-10 10-10h10.052c.283 7.153 2.072 13.922 5.064 20.001h-25.116c0 .001 0 .001 0 0zm-166 30c0-5.514 4.486-10 10-10h198.927c5.128 3.317 10.892 5.732 17.074 6.992v123.008h-57.706v-2.94c0-17.706-8.324-33.938-22.235-44.284 1.818-4.291 2.823-9.006 2.823-13.951v-12.942c0-19.786-16.097-35.882-35.883-35.882s-35.883 16.097-35.883 35.882v12.942c0 4.945 1.006 9.66 2.823 13.951-13.912 10.344-22.235 26.571-22.235 44.284v2.94h-57.705zm0 300.001v-10.001h.001 394.295v20h-384.296c-5.513 0-10-4.485-10-9.999zm293.709 89.999h-115.386l14.883-60h85.593zm168.293-80h-47.706v-20h57.705.001v10.001c0 5.514-4.486 9.999-10 9.999z"/><path d="m256.005 60c5.522 0 10-4.477 10-10s-4.478-10-10-10h-.008c-5.522 0-9.996 4.477-9.996 10s4.482 10 10.004 10z"/><path d="m256.001 267.002c-5.522 0-10 4.48-10 10.003s4.478 10 10 10 10-4.477 10-10v-.007c0-5.522-4.477-9.996-10-9.996z"/></g></g></svg>