<svg id="Capa_1" enable-background="new 0 0 512 512" height="512" viewBox="0 0 512 512" width="512" xmlns="http://www.w3.org/2000/svg"><g><path d="m479.133 447.449h-446.266v-309.924c0-14.102 11.432-25.533 25.533-25.533h395.199c14.102 0 25.533 11.432 25.533 25.533v309.924z" fill="#6f6471"/><path d="m448.787 400.949h-385.474v-256.265c0-1.478 1.198-2.676 2.676-2.676h380.121c1.478 0 2.676 1.198 2.676 2.676v256.265z" fill="#ccf49f"/><g><circle cx="189.958" cy="188.298" fill="#633c3e" r="19.425"/><g><path d="m159.734 369.022h41.791c12.884 0 22.634-11.649 20.366-24.332l-3.069-17.158c-2.327-13.01-11.41-23.795-23.834-28.301l-35.253-12.786-35.535 12.888c-12.274 4.451-21.298 15.035-23.752 27.859l-3.302 17.252c-2.442 12.754 7.334 24.579 20.32 24.579h42.268" fill="#95d5a4"/><path d="m179.175 293.545-19.878 17.352-19.866-17.352v-26.638h39.744z" fill="#ecbd83"/><path d="m190.872 219.915v22.582c0 17.699-14.495 32.616-32.193 32.276-17.153-.33-30.957-14.34-30.957-31.565v-23.292c0-3.678.629-7.211 1.793-10.487 4.316-12.28 16.019-21.078 29.783-21.078 8.715 0 11.74 7.181 17.457 12.888 5.717 5.717 14.117 9.96 14.117 18.676z" fill="#f7d4ad"/></g><path d="m190.872 219.915v3.904l-.464.196c-2.091 1.638-4.45 3.008-7.036 4.049-11.837 4.739-24.972 1.03-32.719-8.272 0 0-7.242-8.654-19.769-10.219-.474-.062-.927-.113-1.37-.144 4.316-12.28 16.019-21.078 29.783-21.078 8.715 0 16.607 3.534 22.324 9.241 5.717 5.716 9.251 13.607 9.251 22.323z" fill="#6e4848"/></g><path d="m509.113 429.968h-191.792c-4.827 0-8.74 3.913-8.74 8.74 0 4.827-3.913 8.74-8.74 8.74h-87.681c-4.827 0-8.74-3.913-8.74-8.74 0-4.827-3.913-8.74-8.74-8.74h-191.793c-1.594 0-2.887 1.293-2.887 2.887v5.206c0 18.361 14.884 33.245 33.245 33.245h445.51c18.361 0 33.245-14.884 33.245-33.245v-5.206c0-1.594-1.293-2.887-2.887-2.887z" fill="#c7c5c9"/><path d="m448.001 400.949h-192.001v-258.941h192.001c.434 0 .786.352.786.786v257.371c0 .433-.352.784-.786.784z" fill="#d2d2ff"/><g><g><path d="m352.633 369.022h41.791c12.884 0 22.634-11.649 20.366-24.332l-3.069-17.158c-2.327-13.01-11.41-23.795-23.834-28.301l-35.253-12.786-35.534 12.888c-12.274 4.451-21.298 15.035-23.752 27.859l-3.302 17.252c-2.441 12.754 7.334 24.579 20.32 24.579h42.267" fill="#a09eef"/><path d="m372.074 293.545-.008.007c-11.383 9.936-28.357 9.934-39.736-.007v-26.638h39.744z" fill="#ecbd83"/><path d="m383.763 219.915v22.582c0 17.699-14.484 32.616-32.183 32.276-17.153-.33-30.957-14.34-30.957-31.565v-23.292c0-17.431 14.134-31.565 31.575-31.565 8.716 0 16.607 3.534 22.314 9.241 5.161 5.161 8.54 12.094 9.148 19.81.072.834.103 1.668.103 2.513z" fill="#f7d4ad"/></g><path d="m383.66 217.401c-1.205 1.535-1.988 2.514-1.988 2.514-2.235 1.288-4.667 2.483-7.263 3.523-7.094 2.84-14.092 4.041-19.765 3.702-4.247-.253-8.284-2.024-11.299-5.027-1.595-1.588-4.004-3.602-6.837-4.713-4.234-1.659-10.446 5.336-15.885 6.418v-3.258c0-17.255 13.577-31.803 30.827-32.202 9.011-.208 17.191 3.362 23.061 9.232 5.162 5.162 8.541 12.095 9.149 19.811z" fill="#6e4848"/></g><g><path d="m340.426 40.693h-120.794c-8.832 0-15.992 7.16-15.992 15.992v69.364c0 8.832 7.16 15.992 15.992 15.992h.782c3.342 0 6.052 2.71 6.052 6.052v20.247c0 3.174 3.69 4.919 6.144 2.906l33.926-27.832c1.082-.888 2.439-1.373 3.838-1.373h70.052c8.832 0 15.992-7.16 15.992-15.992v-69.363c0-8.832-7.16-15.993-15.992-15.993z" fill="#ecbd83"/><g><path d="m319.63 81.61h-85.184c-4.267 0-7.726-3.459-7.726-7.726s3.459-7.726 7.726-7.726h85.184c4.267 0 7.726 3.459 7.726 7.726s-3.459 7.726-7.726 7.726z" fill="#f4dfcb"/></g><g><path d="m290.087 115.05h-55.641c-4.267 0-7.726-3.459-7.726-7.726s3.459-7.726 7.726-7.726h55.641c4.267 0 7.726 3.459 7.726 7.726 0 4.266-3.459 7.726-7.726 7.726z" fill="#f4dfcb"/></g></g><g><circle cx="256.05" cy="325.673" fill="#ff6b61" r="44.566"/><g><path d="m252.161 346.967c-4.533 0-9.085-1.501-12.819-4.578l-.478-.394c-3.293-2.714-3.763-7.583-1.049-10.876 2.713-3.292 7.583-3.763 10.876-1.049l.477.393c1.993 1.642 4.976 1.378 6.65-.589l3.579-4.206c1.649-1.938 1.486-4.819-.372-6.558-3.115-2.917-3.276-7.806-.36-10.921 2.917-3.114 7.806-3.276 10.921-.36 7.89 7.387 8.584 19.621 1.579 27.853l-3.579 4.206c-3.971 4.669-9.683 7.079-15.425 7.079z" fill="#fff"/></g></g></g></svg>