<svg id="Capa_1" enable-background="new 0 0 512 512" height="512" viewBox="0 0 512 512" width="512" xmlns="http://www.w3.org/2000/svg"><g><path d="m512 256c0 141.385-114.615 256-256 256-45.781 0-88.755-12.017-125.941-33.07-3.293-1.864-3.647-9.756-6.847-11.76-34.406-21.546-58.724-46.935-79.581-81.809-1.546-2.586-10.543-3.351-11.999-5.994-20.161-36.588-31.632-78.638-31.632-123.367 0-141.385 114.615-256 256-256s256 114.615 256 256z" fill="#9bcf1b"/><path d="m450.239 192.328c0 76.862-62.309 139.172-139.172 139.172s-139.172-62.309-139.172-139.172 62.31-139.171 139.173-139.171 139.171 62.309 139.171 139.171z" fill="#b9e746"/><path d="m280.09 176.348c.537 1.513.302 3.113-.5 4.368-.578.904-1.449 1.63-2.538 2.017-2.602.924-5.461-.436-6.385-3.038l-37.012-104.18-107.556 13.444c-1.593.199-3.104-.375-4.158-1.428-.759-.759-1.28-1.766-1.424-2.913-.343-2.74 1.601-5.239 4.341-5.582l113.137-14.142c2.741-.342 5.514 6.378 5.071 7.241zm154.413 13.526c-.276-2.747-2.727-4.751-5.475-4.475l-113.447 11.396c-2.748.276-4.751 2.727-4.475 5.475.115 1.15.612 2.17 1.353 2.947 1.028 1.079 2.525 1.689 4.122 1.529l113.447-11.396c2.747-.277 4.751-2.729 4.475-5.476z" fill="#5ca33b"/><path d="m111.337 180.164c-7.81 7.81-20.474 7.81-28.284 0s-7.81-20.474 0-28.284 20.474-7.81 28.284 0 7.81 20.474 0 28.284zm140.007-96.166c-7.81 7.81-20.474 7.81-28.284 0s-7.81-20.474 0-28.284 20.474-7.81 28.284 0 7.81 20.473 0 28.284zm-118.028 7.778c0 18.778-15.222 34-34 34s-34-15.222-34-34 15.222-34 34-34 34 15.222 34 34zm360.826 72.366c-7.81 7.81-20.474 7.81-28.284 0s-7.81-20.474 0-28.284 20.474-7.81 28.284 0c7.811 7.81 7.811 20.474 0 28.284zm-53.552 43.51c-9.45 5.718-21.747 2.693-27.465-6.757s-2.693-21.747 6.757-27.465 21.747-2.693 27.465 6.757c5.719 9.45 2.694 21.746-6.757 27.465zm40.749 13.687c-4.882 4.882-12.796 4.882-17.678 0s-4.882-12.796 0-17.678 12.796-4.882 17.678 0c4.881 4.882 4.881 12.796 0 17.678z" fill="#3d4ec6"/><path d="m111.337 151.88c7.811 7.81 7.811 20.474 0 28.284-1.691 1.691-3.609 3.016-5.657 3.974-2.047-.959-3.966-2.283-5.657-3.974-7.811-7.81-7.811-20.474 0-28.284 1.691-1.691 3.609-3.016 5.657-3.974 2.047.958 3.966 2.283 5.657 3.974zm-12.021-94.104c-4.065 0-7.964.714-11.578 2.023-1.309 3.614-2.023 7.512-2.023 11.577 0 18.778 15.222 34 34 34 4.065 0 7.964-.714 11.577-2.023 1.309-3.614 2.023-7.512 2.023-11.577.001-18.778-15.221-34-33.999-34zm343.488 117.2c-2.217.442-4.397 1.27-6.443 2.508-9.45 5.718-12.476 18.015-6.758 27.465 1.238 2.046 2.785 3.791 4.544 5.211 2.217-.442 4.396-1.27 6.443-2.508 9.45-5.718 12.476-18.015 6.757-27.465-1.237-2.047-2.784-3.791-4.543-5.211zm-197.117-123.237c-2.047.959-3.966 2.283-5.657 3.974-7.81 7.81-7.81 20.474 0 28.284 1.691 1.691 3.609 3.016 5.657 3.974 2.047-.959 3.966-2.283 5.657-3.974 7.811-7.81 7.811-20.474 0-28.284-1.691-1.691-3.61-3.015-5.657-3.974zm248.455 84.119c-1.691-1.691-3.609-3.016-5.657-3.974-2.047.959-3.966 2.283-5.657 3.974-7.81 7.81-7.81 20.474 0 28.284 1.691 1.691 3.61 3.016 5.657 3.974 2.047-.959 3.966-2.283 5.657-3.974 7.811-7.81 7.811-20.474 0-28.284z" fill="#5766ce"/><path d="m396.08 14.522 7.691-9.887c7.115-9.147 21.777-3.81 21.348 7.77l-.464 12.517c-.288 7.777 6.824 13.746 14.434 12.111l12.247-2.63c11.33-2.433 19.131 11.079 11.359 19.675l-8.401 9.291c-5.22 5.773-3.608 14.916 3.272 18.556l11.072 5.857c10.243 5.418 7.534 20.785-3.945 22.373l-12.408 1.717c-7.709 1.067-12.352 9.108-9.421 16.317l4.717 11.604c4.364 10.735-7.589 20.765-17.403 14.603l-10.609-6.66c-6.591-4.138-15.316-.963-17.705 6.444l-3.845 11.921c-3.557 11.028-19.161 11.028-22.718 0l-3.845-11.921c-2.389-7.407-11.114-10.583-17.705-6.444l-10.609 6.66c-9.814 6.162-21.767-3.868-17.403-14.603l4.717-11.604c2.931-7.21-1.712-15.251-9.421-16.317l-12.408-1.717c-11.479-1.588-14.188-16.955-3.945-22.373l11.072-5.857c6.879-3.639 8.492-12.783 3.272-18.556l-8.401-9.291c-7.772-8.595.029-22.108 11.359-19.675l12.247 2.63c7.609 1.634 14.722-4.334 14.434-12.111l-.464-12.517c-.429-11.58 14.233-16.917 21.348-7.77l7.691 9.887c4.777 6.143 14.062 6.143 18.84 0zm-116.836 133.788c-6.297-8.096-19.275-3.372-18.895 6.877.255 6.884-6.04 12.166-12.775 10.72-10.028-2.154-16.933 9.807-10.054 17.414 4.62 5.109 3.193 13.203-2.896 16.424-9.066 4.796-6.668 18.397 3.492 19.803 6.824.944 10.933 8.061 8.338 14.443-3.862 9.502 6.717 18.379 15.404 12.925 5.834-3.663 13.557-.852 15.671 5.704 3.149 9.761 16.959 9.761 20.108 0 2.115-6.556 9.837-9.367 15.671-5.704 8.687 5.454 19.266-3.424 15.404-12.925-2.594-6.381 1.515-13.499 8.339-14.443 10.16-1.406 12.558-15.007 3.492-19.803-6.089-3.221-7.516-11.314-2.896-16.424 6.879-7.608-.026-19.568-10.054-17.414-6.735 1.447-13.03-3.836-12.775-10.72.38-10.25-12.598-14.973-18.895-6.877-4.231 5.438-12.449 5.438-16.679 0z" fill="#717ed6"/><path d="m441.659 83.8c0 30.376-24.625 55-55 55-30.376 0-55-24.624-55-55s24.624-55 55-55 55 24.624 55 55zm-154.076 78.173c-20.924 0-37.886 16.962-37.886 37.886s16.962 37.886 37.886 37.886 37.886-16.962 37.886-37.886c-.001-20.924-16.963-37.886-37.886-37.886z" fill="#3d4ec6"/><path d="m415.767 130.475c-10.394 6.496-23.882-1.122-23.882-13.379v-.805c0-5.391 2.857-10.286 7.366-13.241 6.66-4.365 10.669-12.093 10.11-20.771-.729-11.336-9.66-20.342-20.99-21.162-8.589-.622-16.268 3.221-20.708 9.71-2.99 4.37-7.833 7.105-13.128 7.105h-.769c-12.319 0-19.999-13.657-13.302-23.996 10.115-15.615 27.932-26.331 48.072-25.66 28.79.958 52.96 25.037 53.825 53.83.613 20.388-10.601 38.374-26.594 48.369zm-125.145 31.286c-16.626-1.449-30.905 8.211-37.385 22.086-2.925 6.264 1.622 13.451 8.535 13.451h.533c3.511 0 6.588-2.141 8.053-5.332 3.219-7.013 10.166-11.294 18.544-10.543 9.048.811 16.615 7.747 17.374 16.8.617 7.352-2.789 13.92-8.439 17.565-2.628 1.695-4.141 4.675-4.141 7.802v.101c0 7.469 8.292 12.005 14.549 7.927 11.11-7.243 18.567-20.158 17.499-34.637-1.354-18.349-16.793-33.622-35.122-35.22z" fill="#5766ce"/><path d="m378.909 44.55c0-4.142 3.358-7.5 7.5-7.5s7.5 3.358 7.5 7.5-3.358 7.5-7.5 7.5-7.5-3.358-7.5-7.5zm8 71c-4.142 0-7.5 3.358-7.5 7.5s3.358 7.5 7.5 7.5 7.5-3.358 7.5-7.5-3.358-7.5-7.5-7.5zm-32-31.5c0-4.142-3.358-7.5-7.5-7.5s-7.5 3.358-7.5 7.5 3.358 7.5 7.5 7.5 7.5-3.358 7.5-7.5zm71-8c-4.142 0-7.5 3.358-7.5 7.5s3.358 7.5 7.5 7.5 7.5-3.358 7.5-7.5-3.358-7.5-7.5-7.5zm-61.877-14.524c2.929-2.929 2.929-7.678 0-10.607s-7.678-2.929-10.607 0-2.929 7.678 0 10.607 7.678 2.929 10.607 0zm45.255 44.548c-2.929 2.929-2.929 7.678 0 10.607s7.678 2.929 10.606 0c2.929-2.929 2.929-7.678 0-10.607s-7.677-2.929-10.606 0zm-55.508.353c-2.929 2.929-2.929 7.678 0 10.607s7.677 2.929 10.606 0 2.929-7.678 0-10.607-7.677-2.929-10.606 0zm65.761-45.254c2.929-2.929 2.929-7.678 0-10.607s-7.678-2.929-10.606 0c-2.929 2.929-2.929 7.678 0 10.607 2.928 2.929 7.677 2.929 10.606 0z" fill="#3342ae"/><path d="m409.659 83.8c0 12.703-10.297 23-23 23s-23-10.297-23-23 10.297-23 23-23 23 10.297 23 23zm-122.076 97.116c-10.462 0-18.943 8.481-18.943 18.943s8.481 18.943 18.943 18.943 18.943-8.481 18.943-18.943-8.482-18.943-18.943-18.943z" fill="#b9e746"/><path d="m126.363 466.363-82.731-82.732 50-50 82.731 82.732z" fill="#3493f8"/><path d="m43.632 383.632 50-50 15.66 15.66-50 50z" fill="#1380e2"/><path d="m470.888 284.245-29.206 42.328c-17.008 24.65-44.589 39.901-74.509 41.202l-108.367 4.712c-14.997.652-29.205 6.902-39.82 17.517l-34.986 34.986-98.995-98.995 84.35-84.35c9.377-9.377 22.095-14.645 35.356-14.645h160.289c11.046 0 20 8.954 20 20 0 11.046-8.954 20-20 20h-117.247c-8.765 0-13.155 10.598-6.957 16.796 1.845 1.845 4.348 2.882 6.957 2.882h133.426c1.549 0 3.09-.234 4.57-.693l64.265-19.958c16.773-6.086 25.849 11.008 20.874 18.218z" fill="#5f55af"/><path d="m384.999 246.847c-.051 0-.102-.001-.153-.001h-160.289c-13.261 0-25.979 5.268-35.355 14.645l-84.35 84.35-19.846-19.846 84.35-84.35c9.376-9.377 22.094-14.645 35.355-14.645h160.289c10.995 0 19.917 8.872 19.999 19.847z" fill="#51489a"/><path d="m188.08 434.217-110.302-110.302c-3.905-3.905-3.905-10.237 0-14.142 3.905-3.905 10.237-3.905 14.142 0l110.302 110.302c3.905 3.905 3.905 10.237 0 14.142-3.905 3.905-10.237 3.905-14.142 0z" fill="#51489a"/><path d="m102.606 348.743-24.828-24.828c-3.905-3.905-3.905-10.237 0-14.142 3.905-3.905 10.237-3.905 14.142 0l24.828 24.828c-3.905-3.905-10.237-3.905-14.142 0-3.905 3.906-3.905 10.237 0 14.142z" fill="#453d83"/><path d="m161.959 439.959c1.953 1.953 1.953 5.118 0 7.071l-31.9 31.9c-41.322-23.395-75.496-57.946-98.427-99.563l31.332-31.332c1.953-1.953 5.118-1.953 7.071 0z" fill="#a7d0fc"/><path d="m50.215 408.305c-6.815-9.193-13.029-18.858-18.583-28.938l31.332-31.332c1.953-1.953 5.118-1.953 7.071 0l20.225 20.225z" fill="#86befb"/></g></svg>